90_lb_Static
version=1
nRows=37
nColumns=28
inDegrees=yes
endheader
time	ground_force1_vx	ground_force1_vy	ground_force1_vz	ground_force1_px	ground_force1_py	ground_force1_pz	ground_torque1_x	ground_torque1_y	ground_torque1_z	ground_force3_vx	ground_force3_vy	ground_force3_vz	ground_force3_px	ground_force3_py	ground_force3_pz	ground_torque3_x	ground_torque3_y	ground_torque3_z	ground_force2_vx	ground_force2_vy	ground_force2_vz	ground_force2_px	ground_force2_py	ground_force2_pz	ground_torque2_x	ground_torque2_y	ground_torque2_z
2.355000	0.038707	-0.094958	-0.203036	-0.203000	0.000000	0.001500	0.001000	0.058536	-0.027236	-10.135917	77.958191	-5.602417	-0.235345	0.000000	-0.601746	-0.000002	-0.720748	-0.000001	0.206879	-1.050160	-0.560938	0.200000	0.000000	-0.300000	-0.121964	-0.027465	0.009995	
2.356000	-0.113157	-1.046000	-0.309430	-0.203000	0.000000	0.001500	0.032624	-0.008080	0.045754	-9.948907	78.163773	-5.672379	-0.236520	0.000000	-0.598513	0.000000	-0.740566	-0.000001	0.223610	-0.388259	-0.304278	0.200000	0.000000	-0.300000	-0.035820	0.030172	-0.060646	
2.357000	0.145766	-0.641165	-0.032113	-0.203000	0.000000	0.001500	0.075973	0.003158	0.012076	-10.047047	78.193481	-5.562602	-0.236267	0.000000	-0.600929	0.000003	-0.741338	-0.000001	0.242914	0.523140	0.015219	0.200000	0.000000	-0.300000	0.001332	0.001382	0.022590	
2.358000	0.004200	-1.139701	0.088299	-0.203000	0.000000	0.001500	0.028102	0.044300	0.023941	-10.444180	77.832382	-5.440072	-0.234722	0.000000	-0.601828	0.000004	-0.734612	-0.000001	-0.060072	0.194610	-0.106004	0.200000	0.000000	-0.300000	-0.067503	0.089010	0.047172	
2.359000	0.038958	-0.381292	-0.107739	-0.203000	0.000000	0.001500	-0.068302	-0.012412	0.033239	-10.307815	77.737228	-5.684582	-0.236064	0.000000	-0.601793	0.000004	-0.696402	-0.000001	0.276569	-0.001271	-0.117325	0.200000	0.000000	-0.300000	0.003830	0.075092	0.126385	
2.360000	0.216043	-0.259769	-0.181232	-0.203000	0.000000	0.001500	0.066749	0.003407	-0.025195	-9.818069	77.216606	-5.788654	-0.236428	0.000000	-0.600583	0.000002	-0.735317	-0.000001	0.121972	0.523445	0.106427	0.200000	0.000000	-0.300000	-0.014820	-0.025039	0.145328	
2.361000	0.392620	-0.354171	-0.248604	-0.203000	0.000000	0.001500	0.155774	0.004643	0.000299	-9.935486	78.069328	-5.787902	-0.236346	0.000000	-0.601377	0.000002	-0.673493	-0.000000	-0.004444	0.981577	-0.277389	0.200000	0.000000	-0.300000	-0.179884	-0.054649	-0.012500	
2.362000	0.440355	-1.396983	-0.012438	-0.203000	0.000000	0.001500	0.081256	-0.027850	-0.061762	-10.027862	78.457031	-5.520371	-0.235045	0.000000	-0.602110	0.000004	-0.732473	-0.000001	0.062959	0.816133	-0.121087	0.200000	0.000000	-0.300000	-0.031005	0.025737	0.004412	
2.363000	0.181134	-1.259421	0.020940	-0.203000	0.000000	0.001500	0.110883	-0.050970	0.049277	-9.896999	78.195000	-5.489030	-0.235247	0.000000	-0.598984	0.000003	-0.764197	-0.000001	0.020478	0.457340	-0.261563	0.200000	0.000000	-0.300000	0.033309	0.095678	0.085771	
2.364000	0.085161	-1.068754	-0.067201	-0.203000	0.000000	0.001500	0.034046	-0.069136	-0.053663	-9.785413	78.621559	-5.715963	-0.235591	0.000000	-0.601144	0.000003	-0.722749	-0.000001	-0.140067	0.883197	-0.487790	0.200000	0.000000	-0.300000	0.054577	0.071041	0.111932	
2.365000	-0.043537	-0.808935	-0.024276	-0.203000	0.000000	0.001500	-0.000285	-0.006911	-0.130621	-10.081591	78.813560	-5.647624	-0.233161	0.000000	-0.601450	-0.000001	-0.725189	-0.000000	-0.116502	1.078092	-0.078295	0.168518	0.000000	-0.339447	-0.000000	0.030890	0.000000	
2.366000	0.040596	0.322552	-0.131911	-0.203000	0.000000	0.001500	0.154980	0.003411	-0.217820	-10.204597	78.812500	-5.269303	-0.235529	0.000000	-0.600205	0.000004	-0.736120	-0.000000	0.169784	0.030577	-0.108501	0.200000	0.000000	-0.300000	0.066898	0.031673	0.018618	
2.367000	0.148579	-0.851503	-0.246752	-0.203000	0.000000	0.001500	0.082697	0.065628	-0.021334	-9.944335	79.074219	-5.284387	-0.235861	0.000000	-0.601542	0.000000	-0.719222	-0.000000	0.199549	-0.359834	-0.313629	0.200000	0.000000	-0.300000	0.117217	0.023203	0.052401	
2.368000	0.105653	-1.425145	-0.270442	-0.203000	0.000000	0.001500	-0.093695	0.036992	0.064523	-10.171599	78.910233	-5.196918	-0.234823	0.000000	-0.601705	0.000001	-0.655404	-0.000001	0.112639	-0.098262	-0.099364	0.200000	0.000000	-0.300000	-0.157816	-0.008434	-0.011086	
2.369000	0.217341	-0.123211	-0.074761	-0.203000	0.000000	0.001500	-0.005848	-0.008522	-0.015555	-9.834960	78.295151	-5.216683	-0.234523	0.000000	-0.602354	0.000003	-0.668810	-0.000001	-0.040466	-0.261203	-0.000011	0.200000	0.000000	-0.300000	-0.102774	0.008222	0.043072	
2.370000	-0.060332	-0.684531	-0.065179	-0.203000	0.000000	0.001500	-0.054434	-0.045563	0.017770	-10.061033	78.615883	-5.438941	-0.235820	0.000000	-0.600355	0.000003	-0.704872	-0.000000	0.238450	-1.144987	0.126069	0.200000	0.000000	-0.300000	0.086853	-0.035746	0.034393	
2.371000	-0.183357	-0.810467	-0.283695	-0.203000	0.000000	0.001500	-0.066721	-0.042188	-0.009490	-10.272456	79.069939	-5.377985	-0.234935	0.000000	-0.601449	0.000005	-0.735073	-0.000002	0.423251	-0.656163	-0.022143	0.200000	0.000000	-0.300000	0.002953	0.024684	-0.059134	
2.372000	0.269643	-0.711412	-0.360906	-0.203000	0.000000	0.001500	-0.121214	-0.023803	0.030419	-10.360505	79.432076	-5.260900	-0.234679	0.000000	-0.601350	0.000001	-0.656597	-0.000001	0.309880	0.422586	-0.353897	0.200000	0.000000	-0.300000	-0.056771	0.041909	0.045310	
2.373000	0.311626	-0.970809	-0.035796	-0.203000	0.000000	0.001500	-0.131934	-0.019041	-0.097470	-10.193133	79.008873	-5.438296	-0.236501	0.000000	-0.600723	0.000000	-0.711264	-0.000001	-0.126825	0.197795	-0.317148	0.200000	0.000000	-0.300000	-0.150596	0.036850	0.085344	
2.374000	0.391074	-1.066926	-0.176314	-0.203000	0.000000	0.001500	-0.137197	-0.059166	-0.055183	-10.120739	77.512627	-5.447885	-0.238041	0.000000	-0.600948	0.000006	-0.690388	-0.000001	-0.140888	-0.259803	-0.203348	0.200000	0.000000	-0.300000	-0.087657	0.050013	0.050419	
2.375000	-0.076237	-0.290530	-0.137261	-0.203000	0.000000	0.001500	0.055183	-0.086821	0.054166	-9.787931	78.064728	-5.095320	-0.236441	0.000000	-0.600919	0.000002	-0.649001	-0.000002	-0.222041	-0.618618	-0.243746	0.200000	0.000000	-0.300000	-0.022749	0.001420	0.018434	
2.376000	0.248000	-0.517926	-0.157558	-0.203000	0.000000	0.001500	0.094873	-0.051929	0.008578	-9.668270	79.237061	-5.434622	-0.235086	0.000000	-0.598305	0.000002	-0.677897	-0.000000	-0.081385	1.890813	-0.657781	0.238361	0.000000	-0.295914	0.000000	0.034058	0.000000	
2.377000	-0.335911	-2.012684	0.148496	-0.203000	0.000000	0.001500	-0.065289	0.028564	-0.040633	-10.191810	79.789291	-5.601865	-0.234053	0.000000	-0.600167	0.000005	-0.632186	-0.000001	-0.400189	1.050287	-0.604248	0.162528	0.000000	-0.191336	0.000000	-0.033077	-0.000000	
2.378000	-0.040589	-0.159480	-0.056686	-0.203000	0.000000	0.001500	-0.101352	0.028391	0.032780	-10.127518	78.585556	-5.471025	-0.235739	0.000000	-0.599519	0.000002	-0.742482	-0.000002	-0.214699	-0.682951	-0.145753	0.200000	0.000000	-0.300000	0.040611	0.050067	0.027941	
2.379000	-0.076987	0.193642	0.277675	-0.203000	0.000000	0.001500	0.051043	0.018549	-0.003763	-9.765607	78.099419	-5.359375	-0.235713	0.000000	-0.601248	0.000003	-0.761692	-0.000001	-0.354392	0.225629	-0.454699	0.200000	0.000000	-0.300000	-0.114756	0.027696	-0.010199	
2.380000	-0.046882	-0.000203	0.122140	-0.203000	0.000000	0.001500	0.028683	0.004987	-0.007846	-9.930555	77.838089	-5.596447	-0.235655	0.000000	-0.601887	0.000002	-0.722718	-0.000001	-0.195083	0.457527	-0.433638	0.200000	0.000000	-0.300000	-0.149144	0.043994	0.075369	
2.381000	0.060241	-1.036859	-0.131572	-0.203000	0.000000	0.001500	0.060016	0.065844	-0.029284	-9.899771	77.738281	-5.696198	-0.235348	0.000000	-0.601780	-0.000000	-0.723566	-0.000000	-0.026921	-1.464050	-0.232311	0.200000	0.000000	-0.300000	-0.078736	-0.052655	0.004000	
2.382000	-0.100234	0.906352	0.278321	-0.203000	0.000000	0.001500	0.098066	-0.001863	-0.004809	-9.713837	77.220139	-5.367383	-0.234342	0.000000	-0.602011	0.000003	-0.697071	-0.000001	-0.004343	-1.634717	-0.443301	0.200000	0.000000	-0.300000	-0.094547	-0.039577	0.167967	
2.383000	-0.109884	0.485646	0.188600	-0.203000	0.000000	0.001500	0.094846	0.043304	0.055986	-9.667770	78.065079	-5.704520	-0.233615	0.000000	-0.602335	-0.000001	-0.734676	-0.000001	-0.002661	-0.135556	-0.214091	0.200000	0.000000	-0.300000	-0.189684	0.021505	0.246058	
2.384000	-0.089134	-0.518585	0.089843	-0.203000	0.000000	0.001500	0.027888	-0.060248	-0.003575	-9.864819	77.677109	-5.615018	-0.235513	0.000000	-0.601892	0.000004	-0.682393	-0.000000	0.062780	1.136209	-0.153209	0.164117	0.000000	-0.245719	0.000000	-0.004151	-0.000000	
2.385000	-0.153527	-0.454668	0.090585	-0.203000	0.000000	0.001500	-0.060351	-0.043679	-0.029725	-9.871770	79.195282	-5.383838	-0.235209	0.000000	-0.600440	0.000003	-0.682760	-0.000001	-0.106084	0.135966	-0.113121	0.200000	0.000000	-0.300000	-0.081937	0.008499	-0.106907	
2.386000	0.074665	-1.391866	-0.172351	-0.203000	0.000000	0.001500	-0.093376	-0.032663	0.036822	-10.176424	78.851471	-5.658981	-0.235375	0.000000	-0.600524	0.000001	-0.756316	-0.000001	-0.113982	-0.618861	-0.024660	0.200000	0.000000	-0.300000	-0.049745	0.031371	-0.034459	
2.387000	0.048803	-0.487296	0.120391	-0.203000	0.000000	0.001500	-0.050793	0.002914	-0.060215	-10.033260	78.454201	-5.258529	-0.234485	0.000000	-0.600864	0.000000	-0.728933	-0.000001	-0.159009	0.060190	-0.256468	0.200000	0.000000	-0.300000	0.177969	0.024207	0.057647	
2.388000	0.252158	-1.033817	-0.254589	-0.203000	0.000000	0.001500	-0.116481	-0.022355	-0.116845	-10.196742	76.895523	-5.514778	-0.235134	0.000000	-0.601538	0.000005	-0.751569	-0.000001	-0.050776	0.358764	-0.032526	0.200000	0.000000	-0.300000	0.227879	-0.034373	0.174309	
2.389000	0.219935	-0.648389	-0.384826	-0.203000	0.000000	0.001500	0.045660	0.002769	-0.114850	-10.167283	77.860741	-5.495206	-0.235518	0.000000	-0.600882	0.000001	-0.729143	-0.000001	0.255473	1.137641	-0.106602	0.113010	0.000000	-0.332806	0.000000	-0.112793	0.000000	
2.390000	-0.084799	0.681387	-0.355565	-0.203000	0.000000	0.001500	0.052634	0.018969	0.129496	-9.529552	78.197113	-5.296835	-0.235304	0.000000	-0.600049	-0.000001	-0.740242	-0.000001	-0.101304	0.399739	-0.438255	0.200000	0.000000	-0.300000	-0.053692	0.022583	0.074534	
2.391000	-0.049860	0.036153	-0.032603	-0.203000	0.000000	0.001500	-0.053520	-0.034750	0.009166	-9.695503	77.577980	-5.244148	-0.235638	0.000000	-0.603108	0.000002	-0.694043	-0.000001	-0.018776	1.558912	-0.406576	0.137846	0.000000	-0.349692	0.000000	0.037150	0.000000	
